<svg width="512" height="512" viewBox="0 0 512 512" fill="none" xmlns="http://www.w3.org/2000/svg">
<g clip-path="url(#clip0)">
<path d="M512 411.679H481.859V460.546L399.429 378.116C413.372 358.448 421.577 334.44 421.577 308.549C421.577 246.883 375.039 195.891 315.24 188.829C308.178 129.03 257.186 82.4917 195.52 82.4917C169.629 82.4917 145.621 90.6961 125.953 104.64L69.6456 48.332L96.666 21.3127L75.3523 0L48.332 27.0203L21.3126 0L0 21.3127L27.0203 48.332L0 75.3523L21.3126 96.665L48.332 69.6446L103.701 125.015C85.7861 146.061 74.9565 173.315 74.9565 203.055C74.9565 264.722 121.495 315.712 181.294 322.775C188.356 382.573 239.348 429.112 301.013 429.112C330.754 429.112 358.007 418.283 379.054 400.367L460.546 481.859H411.679V512H512L512 411.679ZM105.097 203.055C105.097 153.196 145.661 112.633 195.52 112.633C240.625 112.633 278.118 145.829 284.861 189.07C231.277 196.277 188.742 238.813 181.535 292.395C138.293 285.654 105.097 248.159 105.097 203.055ZM284.409 219.66C277.593 256.231 248.696 285.129 212.124 291.945C218.94 255.373 247.838 226.476 284.409 219.66ZM211.673 322.534C265.256 315.326 307.791 272.792 314.999 219.209C358.241 225.952 391.436 263.445 391.436 308.549C391.436 358.409 350.874 398.972 301.013 398.972C255.91 398.972 218.415 365.776 211.673 322.534Z" fill="black"/>
</g>
<defs>
<clipPath id="clip0">
<rect width="512" height="512" fill="white" transform="translate(512) rotate(90)"/>
</clipPath>
</defs>
</svg>
