<svg width="759" height="512" viewBox="0 0 759 512" fill="none" xmlns="http://www.w3.org/2000/svg">
<path d="M224.712 40.685H287.552C289.143 40.685 290.669 40.0529 291.795 38.9276C292.92 37.8024 293.552 36.2763 293.552 34.685C293.552 33.0937 292.92 31.5676 291.795 30.4424C290.669 29.3171 289.143 28.685 287.552 28.685H224.712C223.121 28.685 221.595 29.3171 220.469 30.4424C219.344 31.5676 218.712 33.0937 218.712 34.685C218.712 36.2763 219.344 37.8024 220.469 38.9276C221.595 40.0529 223.121 40.685 224.712 40.685V40.685Z" fill="black"/>
<path d="M217.72 73.214H294.543C296.134 73.214 297.66 72.5819 298.786 71.4566C299.911 70.3314 300.543 68.8053 300.543 67.214C300.543 65.6227 299.911 64.0966 298.786 62.9714C297.66 61.8461 296.134 61.214 294.543 61.214H217.72C216.129 61.214 214.603 61.8461 213.477 62.9714C212.352 64.0966 211.72 65.6227 211.72 67.214C211.72 68.8053 212.352 70.3314 213.477 71.4566C214.603 72.5819 216.129 73.214 217.72 73.214Z" fill="black"/>
<path d="M299.537 93.743H212.726C211.135 93.743 209.609 94.3751 208.483 95.5004C207.358 96.6256 206.726 98.1517 206.726 99.743C206.726 101.334 207.358 102.86 208.483 103.986C209.609 105.111 211.135 105.743 212.726 105.743H299.537C301.128 105.743 302.654 105.111 303.78 103.986C304.905 102.86 305.537 101.334 305.537 99.743C305.537 98.1517 304.905 96.6256 303.78 95.5004C302.654 94.3751 301.128 93.743 299.537 93.743V93.743Z" fill="black"/>
<path d="M287.552 474.088H224.712C223.121 474.088 221.595 474.72 220.469 475.845C219.344 476.971 218.712 478.497 218.712 480.088C218.712 481.679 219.344 483.205 220.469 484.331C221.595 485.456 223.121 486.088 224.712 486.088H287.552C289.143 486.088 290.669 485.456 291.795 484.331C292.92 483.205 293.552 481.679 293.552 480.088C293.552 478.497 292.92 476.971 291.795 475.845C290.669 474.72 289.143 474.088 287.552 474.088Z" fill="black"/>
<path d="M294.543 441.559H217.72C216.129 441.559 214.603 442.191 213.477 443.316C212.352 444.442 211.72 445.968 211.72 447.559C211.72 449.15 212.352 450.676 213.477 451.802C214.603 452.927 216.129 453.559 217.72 453.559H294.543C296.134 453.559 297.66 452.927 298.786 451.802C299.911 450.676 300.543 449.15 300.543 447.559C300.543 445.968 299.911 444.442 298.786 443.316C297.66 442.191 296.134 441.559 294.543 441.559V441.559Z" fill="black"/>
<path d="M206.726 415.029C206.726 416.62 207.358 418.146 208.483 419.272C209.609 420.397 211.135 421.029 212.726 421.029H299.537C301.128 421.029 302.654 420.397 303.78 419.272C304.905 418.146 305.537 416.62 305.537 415.029C305.537 413.438 304.905 411.912 303.78 410.786C302.654 409.661 301.128 409.029 299.537 409.029H212.726C211.135 409.029 209.609 409.661 208.483 410.786C207.358 411.912 206.726 413.438 206.726 415.029V415.029Z" fill="black"/>
<path d="M250.734 239.069C247.714 240.028 244.989 241.745 242.821 244.055C240.652 246.366 239.111 249.193 238.344 252.268C237.578 255.343 237.612 258.563 238.443 261.621C239.273 264.679 240.873 267.473 243.09 269.738C245.307 272.002 248.067 273.661 251.107 274.556C254.146 275.452 257.365 275.554 260.455 274.853C263.546 274.152 266.405 272.671 268.761 270.552C271.117 268.433 272.891 265.745 273.914 262.746H293.866C295.457 262.746 296.983 262.114 298.109 260.989C299.234 259.863 299.866 258.337 299.866 256.746C299.866 255.155 299.234 253.629 298.109 252.503C296.983 251.378 295.457 250.746 293.866 250.746H273.914C273.015 248.132 271.546 245.75 269.612 243.774C267.678 241.799 265.329 240.278 262.734 239.324V202.153C262.734 200.562 262.102 199.036 260.977 197.91C259.851 196.785 258.325 196.153 256.734 196.153C255.143 196.153 253.617 196.785 252.491 197.91C251.366 199.036 250.734 200.562 250.734 202.153V239.069ZM256.387 250.18C257.687 250.175 258.959 250.556 260.042 251.274C261.125 251.992 261.971 253.016 262.472 254.215C262.973 255.415 263.106 256.736 262.856 258.011C262.606 259.286 261.982 260.459 261.065 261.38C260.148 262.3 258.978 262.928 257.704 263.184C256.429 263.439 255.108 263.311 253.906 262.815C252.705 262.318 251.678 261.477 250.955 260.397C250.233 259.316 249.847 258.046 249.847 256.746C249.845 255.009 250.533 253.342 251.759 252.111C252.985 250.88 254.65 250.185 256.387 250.18V250.18Z" fill="black"/>
<path d="M242.122 193.89C242.525 193.89 242.927 193.85 243.322 193.77C244.384 193.555 245.471 193.363 246.554 193.201C247.341 193.094 248.099 192.831 248.784 192.428C249.469 192.026 250.067 191.491 250.543 190.855C251.02 190.22 251.365 189.496 251.56 188.726C251.754 187.955 251.794 187.154 251.677 186.369C251.559 185.583 251.287 184.828 250.875 184.149C250.464 183.469 249.922 182.878 249.28 182.41C248.638 181.941 247.91 181.605 247.137 181.42C246.365 181.236 245.563 181.206 244.779 181.334C243.495 181.525 242.204 181.753 240.942 182.008C239.483 182.302 238.185 183.127 237.301 184.324C236.416 185.521 236.008 187.004 236.156 188.484C236.303 189.965 236.996 191.339 238.099 192.337C239.202 193.336 240.637 193.89 242.125 193.89H242.122Z" fill="black"/>
<path d="M186.981 245.829C187.748 246.01 188.543 246.039 189.321 245.913C190.099 245.786 190.844 245.508 191.514 245.094C192.185 244.679 192.766 244.136 193.227 243.497C193.687 242.857 194.017 242.133 194.197 241.366C196.299 232.474 200.297 224.141 205.917 216.936C211.537 209.731 218.646 203.825 226.759 199.621C227.469 199.264 228.101 198.769 228.618 198.166C229.136 197.563 229.528 196.863 229.773 196.106C230.017 195.35 230.109 194.553 230.043 193.761C229.977 192.969 229.754 192.198 229.387 191.493C229.021 190.788 228.517 190.162 227.907 189.653C227.297 189.144 226.592 188.761 225.832 188.527C225.073 188.293 224.274 188.212 223.483 188.289C222.692 188.366 221.924 188.599 221.224 188.975C211.579 193.974 203.127 200.997 196.447 209.564C189.766 218.131 185.015 228.039 182.518 238.612C182.337 239.379 182.309 240.174 182.436 240.952C182.562 241.729 182.84 242.475 183.255 243.145C183.669 243.815 184.212 244.397 184.851 244.858C185.49 245.318 186.214 245.648 186.981 245.829V245.829Z" fill="black"/>
<path d="M256 368.372C317.8 368.372 368.07 317.995 368.07 256.072C368.07 194.149 317.8 143.777 256 143.777C194.2 143.777 143.93 194.153 143.93 256.077C143.93 318.001 194.2 368.372 256 368.372ZM170.777 250.072H156.114C157.437 227.666 166.26 206.356 181.162 189.572L191.491 199.924C192.615 201.051 194.141 201.684 195.732 201.686C197.324 201.688 198.85 201.057 199.977 199.933C201.104 198.809 201.737 197.283 201.739 195.692C201.741 194.1 201.11 192.574 199.986 191.447L189.637 181.077C206.357 166.148 227.625 157.299 250 155.963V170.669C250 172.26 250.632 173.786 251.757 174.912C252.883 176.037 254.409 176.669 256 176.669C257.591 176.669 259.117 176.037 260.243 174.912C261.368 173.786 262 172.26 262 170.669V155.963C284.374 157.299 305.643 166.147 322.363 181.075L312.014 191.446C310.89 192.573 310.26 194.101 310.262 195.693C310.264 197.285 310.898 198.81 312.026 199.934C313.153 201.059 314.68 201.689 316.272 201.687C317.864 201.685 319.39 201.05 320.514 199.923L330.844 189.571C345.746 206.355 354.568 227.665 355.891 250.071H341.222C339.631 250.071 338.105 250.703 336.979 251.828C335.854 252.954 335.222 254.48 335.222 256.071C335.222 257.662 335.854 259.188 336.979 260.314C338.105 261.439 339.631 262.071 341.222 262.071H355.886C354.563 284.477 345.74 305.787 330.838 322.571L320.508 312.219C319.381 311.108 317.86 310.487 316.277 310.491C314.694 310.496 313.178 311.126 312.057 312.244C310.937 313.362 310.303 314.878 310.295 316.461C310.287 318.044 310.905 319.566 312.014 320.695L322.363 331.067C305.644 345.997 284.375 354.848 262 356.187V341.479C262 339.888 261.368 338.362 260.243 337.236C259.117 336.111 257.591 335.479 256 335.479C254.409 335.479 252.883 336.111 251.757 337.236C250.632 338.362 250 339.888 250 341.479V356.186C227.626 354.85 206.357 346.002 189.637 331.074L199.985 320.7C201.109 319.573 201.739 318.045 201.737 316.454C201.735 314.862 201.1 313.336 199.973 312.212C198.846 311.088 197.318 310.458 195.727 310.46C194.135 310.462 192.609 311.097 191.485 312.224L181.156 322.575C166.254 305.791 157.432 284.481 156.109 262.075H170.772C172.363 262.075 173.889 261.443 175.015 260.318C176.14 259.192 176.772 257.666 176.772 256.075C176.772 254.484 176.14 252.958 175.015 251.832C173.889 250.707 172.363 250.075 170.772 250.075L170.777 250.072Z" fill="black"/>
<path d="M361.265 145.13C361.259 135.549 357.75 126.301 351.399 119.128C345.048 111.954 336.293 107.351 326.783 106.185L318.155 28.154C317.463 21.7908 314.445 15.9076 309.68 11.6341C304.914 7.36057 298.739 4.99798 292.338 5H218.147C211.685 4.98519 205.451 7.38663 200.668 11.7328C195.886 16.079 192.901 22.0559 192.3 28.49L184.72 106.28C175.361 107.609 166.796 112.27 160.597 119.407C154.399 126.544 150.983 135.677 150.977 145.13V168.3C134.853 187.601 124.365 210.974 120.666 235.85C120.436 237.425 120.841 239.026 121.791 240.302C122.742 241.578 124.161 242.424 125.735 242.654C127.31 242.885 128.912 242.48 130.188 241.529C131.464 240.578 132.31 239.16 132.54 237.585C141.482 177.334 193.44 130.962 256.005 130.962C324.836 130.962 380.835 187.086 380.835 256.071C380.835 325.056 324.835 381.182 256.005 381.182C193.884 381.182 142.225 335.465 132.741 275.838C132.524 274.421 131.807 273.128 130.721 272.193C129.634 271.258 128.249 270.742 126.816 270.738C125.948 270.738 125.09 270.927 124.301 271.291C123.513 271.655 122.813 272.185 122.249 272.846C121.685 273.506 121.271 274.281 121.036 275.117C120.8 275.952 120.749 276.829 120.885 277.687C124.768 302.048 135.169 324.906 150.985 343.837V363.807C150.991 373.287 154.426 382.445 160.657 389.59C166.888 396.734 175.494 401.383 184.885 402.678L193.859 483.838C194.549 490.2 197.564 496.083 202.327 500.358C207.089 504.633 213.262 506.998 219.662 507H293.853C300.316 507.016 306.551 504.615 311.335 500.269C316.118 495.923 319.104 489.945 319.705 483.51L327.584 402.658C336.93 401.315 345.48 396.649 351.666 389.515C357.852 382.381 361.259 373.257 361.265 363.815V343.571C381.665 318.977 392.83 288.028 392.83 256.074C392.83 224.121 381.665 193.172 361.265 168.578V145.13ZM181.307 141.252C174.8 145.518 168.667 150.328 162.972 155.63V145.13C162.976 139.074 164.995 133.192 168.713 128.412C172.43 123.631 177.634 120.225 183.502 118.73L181.307 141.252ZM256 118.965C234.476 118.941 213.255 124.036 194.087 133.828L204.238 29.654C204.559 26.1896 206.165 22.9706 208.738 20.6292C211.312 18.2879 214.668 16.9934 218.147 17H292.338C295.784 17.0012 299.107 18.2752 301.671 20.5773C304.235 22.8794 305.857 26.0474 306.228 29.473L317.757 133.747C298.629 124.007 277.465 118.941 256 118.965V118.965ZM349.265 155.85C343.493 150.452 337.268 145.56 330.657 141.229L328.157 118.585C334.157 119.975 339.51 123.355 343.343 128.175C347.176 132.995 349.265 138.971 349.268 145.13L349.265 155.85ZM162.972 363.815V356.521C168.682 361.838 174.834 366.66 181.361 370.935L183.493 390.224C177.626 388.726 172.424 385.317 168.708 380.535C164.993 375.753 162.974 369.871 162.972 363.815V363.815ZM307.762 482.346C307.441 485.81 305.835 489.029 303.262 491.371C300.688 493.712 297.332 495.007 293.853 495H219.662C216.216 494.999 212.893 493.725 210.329 491.423C207.765 489.121 206.143 485.953 205.772 482.527L194.26 378.412C213.418 388.137 234.603 393.199 256.088 393.185C277.573 393.172 298.751 388.083 317.897 378.333L307.762 482.346ZM349.262 363.815C349.26 369.862 347.248 375.737 343.543 380.516C339.838 385.295 334.649 388.707 328.793 390.215L330.674 370.91C337.278 366.582 343.498 361.694 349.265 356.3L349.262 363.815Z" fill="black"/>
<path d="M489.667 54.1422H548.58C550.072 54.1422 551.503 53.5496 552.557 52.4947C553.612 51.4398 554.205 50.009 554.205 48.5172C554.205 47.0253 553.612 45.5946 552.557 44.5397C551.503 43.4848 550.072 42.8922 548.58 42.8922H489.667C488.176 42.8922 486.745 43.4848 485.69 44.5397C484.635 45.5946 484.042 47.0253 484.042 48.5172C484.042 50.009 484.635 51.4398 485.69 52.4947C486.745 53.5496 488.176 54.1422 489.667 54.1422V54.1422Z" fill="black"/>
<path d="M483.113 84.6381H555.134C556.626 84.6381 558.057 84.0455 559.112 82.9906C560.166 81.9357 560.759 80.505 560.759 79.0131C560.759 77.5213 560.166 76.0905 559.112 75.0356C558.057 73.9808 556.626 73.3881 555.134 73.3881H483.113C481.621 73.3881 480.19 73.9808 479.135 75.0356C478.08 76.0905 477.488 77.5213 477.488 79.0131C477.488 80.505 478.08 81.9357 479.135 82.9906C480.19 84.0455 481.621 84.6381 483.113 84.6381Z" fill="black"/>
<path d="M559.816 103.884H478.431C476.939 103.884 475.508 104.477 474.453 105.532C473.398 106.586 472.806 108.017 472.806 109.509C472.806 111.001 473.398 112.432 474.453 113.487C475.508 114.541 476.939 115.134 478.431 115.134H559.816C561.308 115.134 562.739 114.541 563.793 113.487C564.848 112.432 565.441 111.001 565.441 109.509C565.441 108.017 564.848 106.586 563.793 105.532C562.739 104.477 561.308 103.884 559.816 103.884V103.884Z" fill="black"/>
<path d="M548.58 460.458H489.667C488.176 460.458 486.745 461.05 485.69 462.105C484.635 463.16 484.042 464.591 484.042 466.083C484.042 467.574 484.635 469.005 485.69 470.06C486.745 471.115 488.176 471.708 489.667 471.708H548.58C550.072 471.708 551.503 471.115 552.557 470.06C553.612 469.005 554.205 467.574 554.205 466.083C554.205 464.591 553.612 463.16 552.557 462.105C551.503 461.05 550.072 460.458 548.58 460.458Z" fill="black"/>
<path d="M555.134 429.962H483.113C481.621 429.962 480.19 430.554 479.135 431.609C478.08 432.664 477.488 434.095 477.488 435.587C477.488 437.078 478.08 438.509 479.135 439.564C480.19 440.619 481.621 441.212 483.113 441.212H555.134C556.626 441.212 558.057 440.619 559.112 439.564C560.166 438.509 560.759 437.078 560.759 435.587C560.759 434.095 560.166 432.664 559.112 431.609C558.057 430.554 556.626 429.962 555.134 429.962V429.962Z" fill="black"/>
<path d="M472.806 405.09C472.806 406.582 473.398 408.012 474.453 409.067C475.508 410.122 476.939 410.715 478.431 410.715H559.816C561.308 410.715 562.739 410.122 563.793 409.067C564.848 408.012 565.441 406.582 565.441 405.09C565.441 403.598 564.848 402.167 563.793 401.112C562.739 400.057 561.308 399.465 559.816 399.465H478.431C476.939 399.465 475.508 400.057 474.453 401.112C473.398 402.167 472.806 403.598 472.806 405.09V405.09Z" fill="black"/>
<path d="M514.063 240.127C511.232 241.026 508.678 242.636 506.644 244.802C504.611 246.968 503.166 249.618 502.448 252.501C501.729 255.384 501.761 258.402 502.54 261.269C503.319 264.136 504.819 266.756 506.897 268.879C508.975 271.002 511.563 272.557 514.413 273.397C517.262 274.236 520.28 274.332 523.177 273.675C526.074 273.017 528.755 271.629 530.964 269.642C533.172 267.656 534.835 265.136 535.794 262.324H554.499C555.991 262.324 557.422 261.732 558.477 260.677C559.532 259.622 560.124 258.191 560.124 256.699C560.124 255.208 559.532 253.777 558.477 252.722C557.422 251.667 555.991 251.074 554.499 251.074H535.794C534.952 248.623 533.574 246.391 531.761 244.538C529.948 242.686 527.746 241.261 525.313 240.366V205.518C525.313 204.027 524.721 202.596 523.666 201.541C522.611 200.486 521.18 199.893 519.688 199.893C518.196 199.893 516.766 200.486 515.711 201.541C514.656 202.596 514.063 204.027 514.063 205.518V240.127ZM519.363 250.544C520.581 250.539 521.774 250.896 522.789 251.569C523.805 252.243 524.598 253.202 525.067 254.327C525.537 255.451 525.662 256.69 525.428 257.885C525.193 259.081 524.608 260.18 523.749 261.043C522.889 261.907 521.792 262.495 520.597 262.735C519.402 262.974 518.163 262.854 517.037 262.389C515.911 261.924 514.948 261.135 514.271 260.122C513.593 259.109 513.232 257.918 513.232 256.699C513.23 255.071 513.875 253.508 515.024 252.354C516.174 251.2 517.734 250.549 519.363 250.544V250.544Z" fill="black"/>
<path d="M505.989 197.772C506.367 197.772 506.744 197.734 507.114 197.659C508.11 197.458 509.129 197.278 510.144 197.126C510.882 197.025 511.593 196.779 512.235 196.401C512.877 196.024 513.437 195.523 513.884 194.927C514.331 194.331 514.655 193.652 514.837 192.93C515.02 192.208 515.057 191.457 514.947 190.721C514.837 189.984 514.581 189.277 514.196 188.639C513.81 188.002 513.301 187.448 512.7 187.009C512.098 186.57 511.416 186.255 510.691 186.082C509.967 185.909 509.215 185.881 508.48 186.001C507.277 186.18 506.066 186.393 504.883 186.632C503.515 186.908 502.299 187.682 501.47 188.804C500.64 189.926 500.258 191.316 500.396 192.704C500.534 194.092 501.183 195.38 502.217 196.316C503.252 197.253 504.597 197.772 505.992 197.772H505.989Z" fill="black"/>
<path d="M454.295 246.465C455.014 246.635 455.759 246.661 456.488 246.543C457.218 246.425 457.916 246.164 458.545 245.775C459.173 245.387 459.719 244.878 460.15 244.278C460.582 243.679 460.891 243 461.06 242.281C463.031 233.944 466.779 226.132 472.047 219.377C477.316 212.623 483.981 207.086 491.587 203.145C492.252 202.81 492.845 202.346 493.33 201.781C493.815 201.215 494.183 200.559 494.412 199.85C494.641 199.141 494.727 198.393 494.665 197.651C494.603 196.908 494.394 196.186 494.05 195.524C493.707 194.863 493.235 194.277 492.663 193.8C492.091 193.323 491.43 192.964 490.718 192.744C490.005 192.524 489.257 192.448 488.515 192.521C487.774 192.593 487.054 192.811 486.397 193.164C477.355 197.85 469.432 204.435 463.169 212.466C456.906 220.497 452.452 229.787 450.111 239.699C449.941 240.418 449.915 241.163 450.033 241.892C450.152 242.621 450.413 243.32 450.801 243.948C451.19 244.577 451.698 245.122 452.298 245.554C452.897 245.986 453.576 246.295 454.295 246.465V246.465Z" fill="black"/>
<path d="M519 361.349C576.938 361.349 624.066 314.12 624.066 256.067C624.066 198.015 576.938 150.791 519 150.791C461.063 150.791 413.934 198.018 413.934 256.072C413.934 314.126 461.063 361.349 519 361.349ZM439.103 250.442H425.357C426.597 229.437 434.868 209.459 448.839 193.724L458.523 203.429C459.577 204.485 461.007 205.079 462.499 205.081C463.991 205.082 465.422 204.491 466.478 203.437C467.535 202.383 468.129 200.953 468.13 199.461C468.132 197.969 467.541 196.538 466.487 195.482L456.785 185.76C472.459 171.764 492.399 163.468 513.375 162.215V176.002C513.375 177.494 513.968 178.925 515.023 179.98C516.077 181.035 517.508 181.627 519 181.627C520.492 181.627 521.923 181.035 522.978 179.98C524.032 178.925 524.625 177.494 524.625 176.002V162.215C545.601 163.468 565.541 171.763 581.215 185.758L571.513 195.481C570.459 196.537 569.868 197.969 569.87 199.462C569.872 200.954 570.467 202.385 571.524 203.439C572.581 204.492 574.013 205.083 575.505 205.081C576.998 205.079 578.428 204.485 579.482 203.428L589.166 193.723C603.137 209.458 611.408 229.436 612.648 250.442H598.896C597.404 250.442 595.973 251.034 594.918 252.089C593.863 253.144 593.271 254.575 593.271 256.067C593.271 257.558 593.863 258.989 594.918 260.044C595.973 261.099 597.404 261.692 598.896 261.692H612.643C611.403 282.697 603.132 302.675 589.161 318.41L579.476 308.705C578.42 307.663 576.994 307.081 575.51 307.086C574.026 307.09 572.604 307.681 571.554 308.729C570.503 309.777 569.909 311.198 569.902 312.682C569.894 314.166 570.473 315.593 571.513 316.652L581.215 326.375C565.541 340.372 545.602 348.67 524.625 349.925V336.137C524.625 334.645 524.032 333.214 522.978 332.159C521.923 331.104 520.492 330.512 519 330.512C517.508 330.512 516.077 331.104 515.023 332.159C513.968 333.214 513.375 334.645 513.375 336.137V349.924C492.399 348.672 472.46 340.377 456.785 326.382L466.486 316.656C467.54 315.6 468.13 314.167 468.128 312.675C468.126 311.183 467.531 309.752 466.475 308.699C465.418 307.645 463.986 307.054 462.494 307.056C461.001 307.058 459.571 307.653 458.517 308.71L448.834 318.414C434.863 302.679 426.592 282.701 425.352 261.695H439.099C440.591 261.695 442.021 261.103 443.076 260.048C444.131 258.993 444.724 257.562 444.724 256.07C444.724 254.578 444.131 253.148 443.076 252.093C442.021 251.038 440.591 250.445 439.099 250.445L439.103 250.442Z" fill="black"/>
<path d="M617.686 152.059C617.681 143.077 614.391 134.407 608.437 127.682C602.482 120.957 594.274 116.642 585.359 115.548L577.27 42.3944C576.621 36.4289 573.792 30.9134 569.325 26.907C564.857 22.9005 559.068 20.6856 553.067 20.6875H483.513C477.455 20.6736 471.61 22.925 467.127 26.9995C462.643 31.074 459.845 36.6774 459.281 42.7094L452.175 115.637C443.401 116.884 435.371 121.253 429.56 127.944C423.749 134.635 420.546 143.197 420.541 152.059V173.781C405.425 191.876 395.592 213.788 392.124 237.109C391.909 238.586 392.288 240.087 393.18 241.283C394.071 242.48 395.401 243.273 396.877 243.489C398.353 243.704 399.855 243.325 401.051 242.433C402.247 241.542 403.041 240.212 403.256 238.736C411.639 182.251 460.35 138.777 519.005 138.777C583.534 138.777 636.033 191.393 636.033 256.067C636.033 320.74 583.533 373.358 519.005 373.358C460.766 373.358 412.336 330.498 403.445 274.598C403.241 273.27 402.569 272.058 401.551 271.181C400.532 270.304 399.234 269.821 397.89 269.817C397.076 269.817 396.272 269.994 395.533 270.335C394.793 270.676 394.137 271.174 393.608 271.793C393.08 272.412 392.692 273.138 392.471 273.922C392.25 274.705 392.202 275.528 392.33 276.332C395.97 299.17 405.721 320.599 420.548 338.347V357.069C420.554 365.957 423.774 374.542 429.616 381.24C435.458 387.938 443.525 392.297 452.33 393.511L460.743 469.598C461.39 475.563 464.217 481.078 468.681 485.086C473.146 489.094 478.934 491.311 484.933 491.312H554.487C560.546 491.328 566.392 489.077 570.876 485.002C575.361 480.927 578.16 475.323 578.723 469.291L586.11 393.492C594.872 392.233 602.887 387.859 608.687 381.171C614.486 374.483 617.681 365.929 617.686 357.077V338.098C636.811 315.041 647.278 286.026 647.278 256.07C647.278 226.113 636.811 197.099 617.686 174.042V152.059ZM448.975 148.424C442.875 152.423 437.125 156.933 431.786 161.903V152.059C431.79 146.382 433.683 140.868 437.168 136.386C440.653 131.905 445.532 128.711 451.033 127.309L448.975 148.424ZM519 127.53C498.821 127.507 478.926 132.283 460.957 141.464L470.473 43.8006C470.774 40.5528 472.279 37.5349 474.692 35.3399C477.105 33.1449 480.251 31.9313 483.513 31.9375H553.067C556.297 31.9386 559.413 33.133 561.816 35.2912C564.22 37.4495 565.741 40.4194 566.089 43.6309L576.897 141.388C558.965 132.256 539.123 127.507 519 127.53V127.53ZM606.436 162.109C601.025 157.048 595.188 152.462 588.991 148.402L586.647 127.173C592.272 128.476 597.29 131.645 600.884 136.164C604.478 140.683 606.436 146.286 606.439 152.059L606.436 162.109ZM431.786 357.077V350.238C437.14 355.223 442.907 359.744 449.026 363.752L451.025 381.835C445.524 380.43 440.647 377.234 437.164 372.752C433.681 368.269 431.789 362.754 431.786 357.077V357.077ZM567.527 468.199C567.226 471.447 565.721 474.465 563.308 476.66C560.895 478.855 557.749 480.069 554.487 480.062H484.933C481.703 480.061 478.587 478.867 476.184 476.709C473.78 474.551 472.259 471.581 471.911 468.369L461.119 370.761C479.08 379.879 498.94 384.624 519.082 384.611C539.225 384.598 559.079 379.827 577.028 370.687L567.527 468.199ZM606.433 357.077C606.431 362.746 604.545 368.254 601.072 372.734C597.598 377.214 592.733 380.413 587.243 381.827L589.007 363.728C595.198 359.67 601.029 355.088 606.436 350.031L606.433 357.077Z" fill="black"/>
</svg>
