<svg width="472" height="472" viewBox="0 0 472 472" fill="none" xmlns="http://www.w3.org/2000/svg">
<g clip-path="url(#clip0)">
<path d="M68.987 402.624C160.967 494.607 310.639 494.607 402.623 402.624C494.606 310.647 494.606 160.966 402.623 68.985C310.64 -22.996 160.968 -22.995 68.987 68.985C-22.994 160.965 -22.993 310.642 68.987 402.624ZM87.29 87.276C169.189 5.37999 302.442 5.37999 384.342 87.276C466.224 169.17 466.224 302.43 384.342 384.331C302.443 466.218 169.178 466.218 87.29 384.331C5.39399 302.431 5.39399 169.17 87.29 87.276Z" fill="black"/>
<line x1="-6.55354" y1="483.482" x2="493.491" y2="-16.5621" stroke="black" stroke-width="10"/>
</g>
<defs>
<clipPath id="clip0">
<rect width="471.612" height="471.612" fill="white"/>
</clipPath>
</defs>
</svg>
